<svg width="600" height="600" viewBox="0 0 600 600" xmlns="http://www.w3.org/2000/svg"><title>Symbol</title><g transform="translate(227 227)" fill="none" fill-rule="evenodd"><ellipse fill="#FF7C56" opacity=".5" style="mix-blend-mode:multiply" cx="72.388" cy="73.001" rx="72.388" ry="47.413"/><path d="M105.914 106.527c28.27-28.27 36.176-66.197 17.66-84.713-18.515-18.516-56.442-10.61-84.712 17.66-28.27 28.27-36.176 66.197-17.66 84.713 18.516 18.516 56.443 10.61 84.712-17.66z" fill="#FF4B83" opacity=".5" style="mix-blend-mode:multiply"/><path d="M38.862 106.527c28.27 28.27 66.197 36.176 84.713 17.66 18.515-18.516 10.61-56.443-17.66-84.712-28.27-28.27-66.197-36.177-84.713-17.66-18.516 18.515-10.61 56.442 17.66 84.712z" fill="#23D3C4" opacity=".5" style="mix-blend-mode:multiply"/><path d="M24.975 73c0 39.98 21.228 72.39 47.413 72.39 26.186 0 47.413-32.41 47.413-72.39C119.8 33.023 98.575.613 72.39.613c-26.185 0-47.413 32.41-47.413 72.39z" fill="#248AF0" opacity=".5" style="mix-blend-mode:multiply"/><path d="M22.41 72.435c0 27.443 22.322 49.69 49.857 49.69 27.536 0 49.858-22.247 49.858-49.69 0-27.443-22.322-49.69-49.858-49.69-27.535 0-49.857 22.247-49.857 49.69z" fill="#53556F"/><path d="M42.043 73.913c0 16.658 13.55 30.162 30.263 30.162 16.714 0 30.264-13.504 30.264-30.162S89.02 43.75 72.306 43.75 42.043 57.256 42.043 73.914z" fill="#FFF"/><ellipse fill="#53556F" cx="71.777" cy="73.336" rx="16.086" ry="16.141"/><ellipse fill="#FFF" cx="80.531" cy="63.861" rx="6.523" ry="6.517"/></g></svg>